<svg width="533" height="641" viewBox="0 0 533 641" fill="none" xmlns="http://www.w3.org/2000/svg">
<path d="M173.546 577.179C172.766 563.547 167.235 550.618 157.912 540.628C148.589 530.638 136.061 524.217 122.495 522.477C108.93 520.737 95.1824 523.787 83.6324 531.1C72.0824 538.412 63.4573 549.526 59.2505 562.517C53.7919 559.834 47.797 558.417 41.7128 558.37C35.6286 558.323 29.6123 559.649 24.1132 562.249C18.6141 564.848 13.7741 568.653 9.95432 573.381C6.13456 578.109 3.43371 583.637 2.05342 589.553C0.673126 595.468 0.64896 601.619 1.9828 607.545C3.31665 613.471 5.97402 619.02 9.75657 623.778C13.5391 628.536 18.3492 632.379 23.8278 635.021C29.3064 637.663 35.312 639.036 41.3963 639.037H169.955C177.878 639.025 185.498 635.994 191.258 630.563C197.018 625.132 200.483 617.71 200.947 609.814C201.41 601.918 198.836 594.143 193.751 588.078C188.665 582.012 181.452 578.114 173.584 577.179H173.546Z" stroke="#E0E5E5" stroke-width="2" stroke-miterlimit="10"/>
<path d="M459.625 599.625V565.25H500.25C503.565 565.25 506.745 566.567 509.089 568.911C511.433 571.255 512.75 574.435 512.75 577.75V599.625" stroke="#E2E6E6" stroke-width="2" stroke-linecap="round" stroke-linejoin="round"/>
<path d="M425.25 615.25V552.75" stroke="#E2E6E6" stroke-width="2" stroke-linecap="round" stroke-linejoin="round"/>
<path d="M425.25 599.625H512.75V615.25" stroke="#E2E6E6" stroke-width="2" stroke-linecap="round" stroke-linejoin="round"/>
<path d="M459.625 565.25H425.25" stroke="#E2E6E6" stroke-width="2" stroke-linecap="round" stroke-linejoin="round"/>
<path d="M146.438 57.9375V33.875H174.875C177.196 33.875 179.421 34.7969 181.062 36.4378C182.703 38.0788 183.625 40.3044 183.625 42.625V57.9375" stroke="#E2E6E6" stroke-width="2" stroke-linecap="round" stroke-linejoin="round"/>
<path d="M122.375 68.875V25.125" stroke="#E2E6E6" stroke-width="2" stroke-linecap="round" stroke-linejoin="round"/>
<path d="M122.375 57.9375H183.625V68.875" stroke="#E2E6E6" stroke-width="2" stroke-linecap="round" stroke-linejoin="round"/>
<path d="M146.438 33.875H122.375" stroke="#E2E6E6" stroke-width="2" stroke-linecap="round" stroke-linejoin="round"/>
<path d="M210.425 14.0075C210.067 14.0075 209.843 14.4552 209.575 15.5522C209.418 16.1343 209.306 16.4478 209.127 16.694C208.836 17.1418 207.47 17.3657 205.164 17.3657L203.619 17.3881C205.478 14.7687 208.187 11.4552 210.515 8.65672C210.649 8.47761 210.739 8.27612 210.739 8.09701C210.739 7.80597 210.537 7.49254 209.955 7.49254C209.485 7.49254 208.858 7.51492 208.276 7.51492H203.261C203.239 7.22388 203.082 7 202.813 7C202.097 7 201.291 9.64179 201.291 10.9627C201.291 11.5448 201.448 11.8358 201.761 11.8358C202.097 11.8358 202.321 11.3881 202.612 10.3358C202.769 9.79851 202.881 9.46269 203.082 9.17164C203.284 8.83582 204.157 8.65672 206.373 8.65672L208.052 8.63433C205.791 11.3209 203.306 14.4776 201.201 17.3657C201.067 17.5448 201 17.7239 201 17.9254C201 18.2164 201.201 18.5299 201.784 18.5299C202.231 18.5299 202.769 18.5075 203.396 18.5075H208.925C208.948 18.7985 209.104 19 209.373 19C210.112 19 210.963 16.2687 210.963 14.903C210.963 14.3433 210.739 14.0075 210.425 14.0075Z" fill="#E0E5E5"/>
<path d="M221.532 14.0075C221.174 14.0075 220.95 14.4552 220.681 15.5522C220.524 16.1343 220.413 16.4478 220.233 16.694C219.942 17.1418 218.577 17.3657 216.271 17.3657L214.726 17.3881C216.584 14.7687 219.293 11.4552 221.622 8.65672C221.756 8.47761 221.845 8.27612 221.845 8.09701C221.845 7.80597 221.644 7.49254 221.062 7.49254C220.592 7.49254 219.965 7.51492 219.383 7.51492H214.368C214.345 7.22388 214.189 7 213.92 7C213.204 7 212.398 9.64179 212.398 10.9627C212.398 11.5448 212.554 11.8358 212.868 11.8358C213.204 11.8358 213.427 11.3881 213.719 10.3358C213.875 9.79851 213.987 9.46269 214.189 9.17164C214.39 8.83582 215.263 8.65672 217.48 8.65672L219.159 8.63433C216.898 11.3209 214.413 14.4776 212.308 17.3657C212.174 17.5448 212.107 17.7239 212.107 17.9254C212.107 18.2164 212.308 18.5299 212.89 18.5299C213.338 18.5299 213.875 18.5075 214.502 18.5075H220.032C220.054 18.7985 220.211 19 220.48 19C221.219 19 222.069 16.2687 222.069 14.903C222.069 14.3433 221.845 14.0075 221.532 14.0075Z" fill="#E0E5E5"/>
<path d="M232.639 14.0075C232.28 14.0075 232.056 14.4552 231.788 15.5522C231.631 16.1343 231.519 16.4478 231.34 16.694C231.049 17.1418 229.683 17.3657 227.377 17.3657L225.833 17.3881C227.691 14.7687 230.4 11.4552 232.728 8.65672C232.862 8.47761 232.952 8.27612 232.952 8.09701C232.952 7.80597 232.75 7.49254 232.168 7.49254C231.698 7.49254 231.071 7.51492 230.489 7.51492H225.474C225.452 7.22388 225.295 7 225.027 7C224.31 7 223.504 9.64179 223.504 10.9627C223.504 11.5448 223.661 11.8358 223.974 11.8358C224.31 11.8358 224.534 11.3881 224.825 10.3358C224.982 9.79851 225.094 9.46269 225.295 9.17164C225.497 8.83582 226.37 8.65672 228.586 8.65672L230.265 8.63433C228.004 11.3209 225.519 14.4776 223.415 17.3657C223.28 17.5448 223.213 17.7239 223.213 17.9254C223.213 18.2164 223.415 18.5299 223.997 18.5299C224.444 18.5299 224.982 18.5075 225.609 18.5075H231.139C231.161 18.7985 231.318 19 231.586 19C232.325 19 233.176 16.2687 233.176 14.903C233.176 14.3433 232.952 14.0075 232.639 14.0075Z" fill="#E0E5E5"/>
<path d="M490.425 119.007C490.067 119.007 489.843 119.455 489.575 120.552C489.418 121.134 489.306 121.448 489.127 121.694C488.836 122.142 487.47 122.366 485.164 122.366L483.619 122.388C485.478 119.769 488.187 116.455 490.515 113.657C490.649 113.478 490.739 113.276 490.739 113.097C490.739 112.806 490.537 112.493 489.955 112.493C489.485 112.493 488.858 112.515 488.276 112.515H483.261C483.239 112.224 483.082 112 482.813 112C482.097 112 481.291 114.642 481.291 115.963C481.291 116.545 481.448 116.836 481.761 116.836C482.097 116.836 482.321 116.388 482.612 115.336C482.769 114.799 482.881 114.463 483.082 114.172C483.284 113.836 484.157 113.657 486.373 113.657L488.052 113.634C485.791 116.321 483.306 119.478 481.201 122.366C481.067 122.545 481 122.724 481 122.925C481 123.216 481.201 123.53 481.784 123.53C482.231 123.53 482.769 123.507 483.396 123.507H488.925C488.948 123.799 489.104 124 489.373 124C490.112 124 490.963 121.269 490.963 119.903C490.963 119.343 490.739 119.007 490.425 119.007Z" fill="#E0E5E5"/>
<path d="M501.532 119.007C501.174 119.007 500.95 119.455 500.681 120.552C500.524 121.134 500.413 121.448 500.233 121.694C499.942 122.142 498.577 122.366 496.271 122.366L494.726 122.388C496.584 119.769 499.293 116.455 501.622 113.657C501.756 113.478 501.845 113.276 501.845 113.097C501.845 112.806 501.644 112.493 501.062 112.493C500.592 112.493 499.965 112.515 499.383 112.515H494.368C494.345 112.224 494.189 112 493.92 112C493.204 112 492.398 114.642 492.398 115.963C492.398 116.545 492.554 116.836 492.868 116.836C493.204 116.836 493.427 116.388 493.719 115.336C493.875 114.799 493.987 114.463 494.189 114.172C494.39 113.836 495.263 113.657 497.48 113.657L499.159 113.634C496.898 116.321 494.413 119.478 492.308 122.366C492.174 122.545 492.107 122.724 492.107 122.925C492.107 123.216 492.308 123.53 492.89 123.53C493.338 123.53 493.875 123.507 494.502 123.507H500.032C500.054 123.799 500.211 124 500.48 124C501.219 124 502.069 121.269 502.069 119.903C502.069 119.343 501.845 119.007 501.532 119.007Z" fill="#E0E5E5"/>
<path d="M512.639 119.007C512.28 119.007 512.056 119.455 511.788 120.552C511.631 121.134 511.519 121.448 511.34 121.694C511.049 122.142 509.683 122.366 507.377 122.366L505.833 122.388C507.691 119.769 510.4 116.455 512.728 113.657C512.862 113.478 512.952 113.276 512.952 113.097C512.952 112.806 512.75 112.493 512.168 112.493C511.698 112.493 511.071 112.515 510.489 112.515H505.474C505.452 112.224 505.295 112 505.027 112C504.31 112 503.504 114.642 503.504 115.963C503.504 116.545 503.661 116.836 503.974 116.836C504.31 116.836 504.534 116.388 504.825 115.336C504.982 114.799 505.094 114.463 505.295 114.172C505.497 113.836 506.37 113.657 508.586 113.657L510.265 113.634C508.004 116.321 505.519 119.478 503.415 122.366C503.28 122.545 503.213 122.724 503.213 122.925C503.213 123.216 503.415 123.53 503.997 123.53C504.444 123.53 504.982 123.507 505.609 123.507H511.139C511.161 123.799 511.318 124 511.586 124C512.325 124 513.176 121.269 513.176 119.903C513.176 119.343 512.952 119.007 512.639 119.007Z" fill="#E0E5E5"/>
<path d="M247.425 601.007C247.067 601.007 246.843 601.455 246.575 602.552C246.418 603.134 246.306 603.448 246.127 603.694C245.836 604.142 244.47 604.366 242.164 604.366L240.619 604.388C242.478 601.769 245.187 598.455 247.515 595.657C247.649 595.478 247.739 595.276 247.739 595.097C247.739 594.806 247.537 594.493 246.955 594.493C246.485 594.493 245.858 594.515 245.276 594.515H240.261C240.239 594.224 240.082 594 239.813 594C239.097 594 238.291 596.642 238.291 597.963C238.291 598.545 238.448 598.836 238.761 598.836C239.097 598.836 239.321 598.388 239.612 597.336C239.769 596.799 239.881 596.463 240.082 596.172C240.284 595.836 241.157 595.657 243.373 595.657L245.052 595.634C242.791 598.321 240.306 601.478 238.201 604.366C238.067 604.545 238 604.724 238 604.925C238 605.216 238.201 605.53 238.784 605.53C239.231 605.53 239.769 605.507 240.396 605.507H245.925C245.948 605.799 246.104 606 246.373 606C247.112 606 247.963 603.269 247.963 601.903C247.963 601.343 247.739 601.007 247.425 601.007Z" fill="#E0E5E5"/>
<path d="M258.532 601.007C258.174 601.007 257.95 601.455 257.681 602.552C257.524 603.134 257.413 603.448 257.233 603.694C256.942 604.142 255.577 604.366 253.271 604.366L251.726 604.388C253.584 601.769 256.293 598.455 258.622 595.657C258.756 595.478 258.845 595.276 258.845 595.097C258.845 594.806 258.644 594.493 258.062 594.493C257.592 594.493 256.965 594.515 256.383 594.515H251.368C251.345 594.224 251.189 594 250.92 594C250.204 594 249.398 596.642 249.398 597.963C249.398 598.545 249.554 598.836 249.868 598.836C250.204 598.836 250.427 598.388 250.719 597.336C250.875 596.799 250.987 596.463 251.189 596.172C251.39 595.836 252.263 595.657 254.48 595.657L256.159 595.634C253.898 598.321 251.413 601.478 249.308 604.366C249.174 604.545 249.107 604.724 249.107 604.925C249.107 605.216 249.308 605.53 249.89 605.53C250.338 605.53 250.875 605.507 251.502 605.507H257.032C257.054 605.799 257.211 606 257.48 606C258.219 606 259.069 603.269 259.069 601.903C259.069 601.343 258.845 601.007 258.532 601.007Z" fill="#E0E5E5"/>
<path d="M269.639 601.007C269.28 601.007 269.056 601.455 268.788 602.552C268.631 603.134 268.519 603.448 268.34 603.694C268.049 604.142 266.683 604.366 264.377 604.366L262.833 604.388C264.691 601.769 267.4 598.455 269.728 595.657C269.862 595.478 269.952 595.276 269.952 595.097C269.952 594.806 269.75 594.493 269.168 594.493C268.698 594.493 268.071 594.515 267.489 594.515H262.474C262.452 594.224 262.295 594 262.027 594C261.31 594 260.504 596.642 260.504 597.963C260.504 598.545 260.661 598.836 260.974 598.836C261.31 598.836 261.534 598.388 261.825 597.336C261.982 596.799 262.094 596.463 262.295 596.172C262.497 595.836 263.37 595.657 265.586 595.657L267.265 595.634C265.004 598.321 262.519 601.478 260.415 604.366C260.28 604.545 260.213 604.724 260.213 604.925C260.213 605.216 260.415 605.53 260.997 605.53C261.444 605.53 261.982 605.507 262.609 605.507H268.139C268.161 605.799 268.318 606 268.586 606C269.325 606 270.176 603.269 270.176 601.903C270.176 601.343 269.952 601.007 269.639 601.007Z" fill="#E0E5E5"/>
<path d="M140 101.25V128.75" stroke="#E0E5E5" stroke-width="2" stroke-linecap="round" stroke-linejoin="round"/>
<path d="M128.093 108.125L151.908 121.875" stroke="#E0E5E5" stroke-width="2" stroke-linecap="round" stroke-linejoin="round"/>
<path d="M128.093 121.875L151.908 108.125" stroke="#E0E5E5" stroke-width="2" stroke-linecap="round" stroke-linejoin="round"/>
<path d="M518.273 31.5893C517.883 24.7737 515.118 18.3088 510.456 13.3139C505.795 8.31902 499.53 5.10868 492.748 4.23864C485.965 3.36861 479.091 4.89366 473.316 8.5498C467.541 12.2059 463.229 17.763 461.125 24.2587C458.396 22.9172 455.398 22.2083 452.356 22.185C449.314 22.1617 446.306 22.8246 443.557 24.1243C440.807 25.4239 438.387 27.3267 436.477 29.6906C434.567 32.0546 433.217 34.8186 432.527 37.7764C431.837 40.7342 431.824 43.8095 432.491 46.7726C433.158 49.7357 434.487 52.5102 436.378 54.889C438.27 57.2678 440.675 59.1894 443.414 60.5105C446.153 61.8316 449.156 62.518 452.198 62.5185H516.477C520.439 62.5127 524.249 60.9972 527.129 58.2816C530.009 55.566 531.742 51.8551 531.973 47.907C532.205 43.9589 530.918 40.0715 528.375 37.0388C525.833 34.006 522.226 32.0568 518.292 31.5893H518.273Z" stroke="#E0E5E5" stroke-width="2" stroke-miterlimit="10"/>
<circle cx="447" cy="4" r="4" fill="#EDF2F2"/>
<circle cx="154" cy="498" r="4" fill="#EDF2F2"/>
<circle cx="478" cy="534" r="4" fill="#EDF2F2"/>
<circle cx="164" cy="12" r="4" fill="#EDF2F2"/>
<path d="M217 543.25V570.75" stroke="#E0E5E5" stroke-width="2" stroke-linecap="round" stroke-linejoin="round"/>
<path d="M205.094 550.125L228.909 563.875" stroke="#E0E5E5" stroke-width="2" stroke-linecap="round" stroke-linejoin="round"/>
<path d="M205.094 563.875L228.909 550.125" stroke="#E0E5E5" stroke-width="2" stroke-linecap="round" stroke-linejoin="round"/>
</svg>
