<svg width="1693" height="739" viewBox="0 0 1693 739" fill="none" xmlns="http://www.w3.org/2000/svg">
<path d="M398 14.375V77.625" stroke="#E0E5E5" stroke-width="2" stroke-linecap="round" stroke-linejoin="round"/>
<path d="M370.613 30.1875L425.389 61.8125" stroke="#E0E5E5" stroke-width="2" stroke-linecap="round" stroke-linejoin="round"/>
<path d="M370.613 61.8125L425.389 30.1875" stroke="#E0E5E5" stroke-width="2" stroke-linecap="round" stroke-linejoin="round"/>
<path d="M1405 538.375V601.625" stroke="#E0E5E5" stroke-width="2" stroke-linecap="round" stroke-linejoin="round"/>
<path d="M1377.61 554.188L1432.39 585.812" stroke="#E0E5E5" stroke-width="2" stroke-linecap="round" stroke-linejoin="round"/>
<path d="M1377.61 585.812L1432.39 554.188" stroke="#E0E5E5" stroke-width="2" stroke-linecap="round" stroke-linejoin="round"/>
<path d="M786 585.375V648.625" stroke="#E0E5E5" stroke-width="2" stroke-linecap="round" stroke-linejoin="round"/>
<path d="M758.613 601.188L813.389 632.812" stroke="#E0E5E5" stroke-width="2" stroke-linecap="round" stroke-linejoin="round"/>
<path d="M758.613 632.812L813.389 601.188" stroke="#E0E5E5" stroke-width="2" stroke-linecap="round" stroke-linejoin="round"/>
<path d="M309 119.25V146.75" stroke="#E0E5E5" stroke-width="2" stroke-linecap="round" stroke-linejoin="round"/>
<path d="M297.094 126.125L320.909 139.875" stroke="#E0E5E5" stroke-width="2" stroke-linecap="round" stroke-linejoin="round"/>
<path d="M297.094 139.875L320.909 126.125" stroke="#E0E5E5" stroke-width="2" stroke-linecap="round" stroke-linejoin="round"/>
<path d="M275 347.25V374.75" stroke="#E0E5E5" stroke-width="2" stroke-linecap="round" stroke-linejoin="round"/>
<path d="M263.094 354.125L286.909 367.875" stroke="#E0E5E5" stroke-width="2" stroke-linecap="round" stroke-linejoin="round"/>
<path d="M263.094 367.875L286.909 354.125" stroke="#E0E5E5" stroke-width="2" stroke-linecap="round" stroke-linejoin="round"/>
<path d="M1497 518.25V545.75" stroke="#E0E5E5" stroke-width="2" stroke-linecap="round" stroke-linejoin="round"/>
<path d="M1485.09 525.125L1508.91 538.875" stroke="#E0E5E5" stroke-width="2" stroke-linecap="round" stroke-linejoin="round"/>
<path d="M1485.09 538.875L1508.91 525.125" stroke="#E0E5E5" stroke-width="2" stroke-linecap="round" stroke-linejoin="round"/>
<path d="M1359 10.25V37.75" stroke="#E0E5E5" stroke-width="2" stroke-linecap="round" stroke-linejoin="round"/>
<path d="M1347.09 17.125L1370.91 30.875" stroke="#E0E5E5" stroke-width="2" stroke-linecap="round" stroke-linejoin="round"/>
<path d="M1347.09 30.875L1370.91 17.125" stroke="#E0E5E5" stroke-width="2" stroke-linecap="round" stroke-linejoin="round"/>
<path d="M1341 502.125V515.875" stroke="#E0E5E5" stroke-width="2" stroke-linecap="round" stroke-linejoin="round"/>
<path d="M1335.05 505.562L1346.95 512.438" stroke="#E0E5E5" stroke-width="2" stroke-linecap="round" stroke-linejoin="round"/>
<path d="M1335.05 512.438L1346.95 505.562" stroke="#E0E5E5" stroke-width="2" stroke-linecap="round" stroke-linejoin="round"/>
<path d="M490 579.125V592.875" stroke="#E0E5E5" stroke-width="2" stroke-linecap="round" stroke-linejoin="round"/>
<path d="M484.046 582.562L495.954 589.438" stroke="#E0E5E5" stroke-width="2" stroke-linecap="round" stroke-linejoin="round"/>
<path d="M484.046 589.438L495.954 582.562" stroke="#E0E5E5" stroke-width="2" stroke-linecap="round" stroke-linejoin="round"/>
<path d="M356.875 92.96C356.235 92.96 355.835 93.76 355.355 95.72C355.075 96.76 354.875 97.32 354.555 97.76C354.035 98.56 351.595 98.96 347.475 98.96L344.715 99C348.035 94.32 352.875 88.4 357.035 83.4C357.275 83.08 357.435 82.72 357.435 82.4C357.435 81.88 357.075 81.32 356.035 81.32C355.195 81.32 354.075 81.36 353.035 81.36H344.075C344.035 80.84 343.755 80.44 343.275 80.44C341.995 80.44 340.555 85.16 340.555 87.52C340.555 88.56 340.835 89.08 341.395 89.08C341.995 89.08 342.395 88.28 342.915 86.4C343.195 85.44 343.395 84.84 343.755 84.32C344.115 83.72 345.675 83.4 349.635 83.4L352.635 83.36C348.595 88.16 344.155 93.8 340.395 98.96C340.155 99.28 340.035 99.6 340.035 99.96C340.035 100.48 340.395 101.04 341.435 101.04C342.235 101.04 343.195 101 344.315 101H354.195C354.235 101.52 354.515 101.88 354.995 101.88C356.315 101.88 357.835 97 357.835 94.56C357.835 93.56 357.435 92.96 356.875 92.96ZM376.718 92.96C376.078 92.96 375.678 93.76 375.198 95.72C374.918 96.76 374.718 97.32 374.398 97.76C373.878 98.56 371.438 98.96 367.318 98.96L364.558 99C367.878 94.32 372.718 88.4 376.878 83.4C377.118 83.08 377.278 82.72 377.278 82.4C377.278 81.88 376.918 81.32 375.878 81.32C375.038 81.32 373.918 81.36 372.878 81.36H363.918C363.878 80.84 363.598 80.44 363.118 80.44C361.838 80.44 360.398 85.16 360.398 87.52C360.398 88.56 360.678 89.08 361.238 89.08C361.838 89.08 362.238 88.28 362.758 86.4C363.038 85.44 363.238 84.84 363.598 84.32C363.958 83.72 365.518 83.4 369.478 83.4L372.478 83.36C368.438 88.16 363.998 93.8 360.238 98.96C359.998 99.28 359.878 99.6 359.878 99.96C359.878 100.48 360.238 101.04 361.278 101.04C362.078 101.04 363.038 101 364.158 101H374.038C374.078 101.52 374.358 101.88 374.838 101.88C376.158 101.88 377.678 97 377.678 94.56C377.678 93.56 377.278 92.96 376.718 92.96ZM396.562 92.96C395.922 92.96 395.522 93.76 395.042 95.72C394.762 96.76 394.562 97.32 394.242 97.76C393.722 98.56 391.282 98.96 387.162 98.96L384.402 99C387.722 94.32 392.562 88.4 396.722 83.4C396.962 83.08 397.122 82.72 397.122 82.4C397.122 81.88 396.762 81.32 395.722 81.32C394.882 81.32 393.762 81.36 392.722 81.36H383.762C383.722 80.84 383.442 80.44 382.962 80.44C381.682 80.44 380.242 85.16 380.242 87.52C380.242 88.56 380.522 89.08 381.082 89.08C381.682 89.08 382.082 88.28 382.602 86.4C382.882 85.44 383.082 84.84 383.442 84.32C383.802 83.72 385.362 83.4 389.322 83.4L392.322 83.36C388.282 88.16 383.842 93.8 380.082 98.96C379.842 99.28 379.722 99.6 379.722 99.96C379.722 100.48 380.082 101.04 381.122 101.04C381.922 101.04 382.882 101 384.002 101H393.882C393.922 101.52 394.202 101.88 394.682 101.88C396.002 101.88 397.522 97 397.522 94.56C397.522 93.56 397.122 92.96 396.562 92.96Z" fill="#E0E5E5"/>
<path d="M1649.87 278.96C1649.23 278.96 1648.83 279.76 1648.35 281.72C1648.07 282.76 1647.87 283.32 1647.55 283.76C1647.03 284.56 1644.59 284.96 1640.47 284.96L1637.71 285C1641.03 280.32 1645.87 274.4 1650.03 269.4C1650.27 269.08 1650.43 268.72 1650.43 268.4C1650.43 267.88 1650.07 267.32 1649.03 267.32C1648.19 267.32 1647.07 267.36 1646.03 267.36H1637.07C1637.03 266.84 1636.75 266.44 1636.27 266.44C1634.99 266.44 1633.55 271.16 1633.55 273.52C1633.55 274.56 1633.83 275.08 1634.39 275.08C1634.99 275.08 1635.39 274.28 1635.91 272.4C1636.19 271.44 1636.39 270.84 1636.75 270.32C1637.11 269.72 1638.67 269.4 1642.63 269.4L1645.63 269.36C1641.59 274.16 1637.15 279.8 1633.39 284.96C1633.15 285.28 1633.03 285.6 1633.03 285.96C1633.03 286.48 1633.39 287.04 1634.43 287.04C1635.23 287.04 1636.19 287 1637.31 287H1647.19C1647.23 287.52 1647.51 287.88 1647.99 287.88C1649.31 287.88 1650.83 283 1650.83 280.56C1650.83 279.56 1650.43 278.96 1649.87 278.96ZM1669.72 278.96C1669.08 278.96 1668.68 279.76 1668.2 281.72C1667.92 282.76 1667.72 283.32 1667.4 283.76C1666.88 284.56 1664.44 284.96 1660.32 284.96L1657.56 285C1660.88 280.32 1665.72 274.4 1669.88 269.4C1670.12 269.08 1670.28 268.72 1670.28 268.4C1670.28 267.88 1669.92 267.32 1668.88 267.32C1668.04 267.32 1666.92 267.36 1665.88 267.36H1656.92C1656.88 266.84 1656.6 266.44 1656.12 266.44C1654.84 266.44 1653.4 271.16 1653.4 273.52C1653.4 274.56 1653.68 275.08 1654.24 275.08C1654.84 275.08 1655.24 274.28 1655.76 272.4C1656.04 271.44 1656.24 270.84 1656.6 270.32C1656.96 269.72 1658.52 269.4 1662.48 269.4L1665.48 269.36C1661.44 274.16 1657 279.8 1653.24 284.96C1653 285.28 1652.88 285.6 1652.88 285.96C1652.88 286.48 1653.24 287.04 1654.28 287.04C1655.08 287.04 1656.04 287 1657.16 287H1667.04C1667.08 287.52 1667.36 287.88 1667.84 287.88C1669.16 287.88 1670.68 283 1670.68 280.56C1670.68 279.56 1670.28 278.96 1669.72 278.96ZM1689.56 278.96C1688.92 278.96 1688.52 279.76 1688.04 281.72C1687.76 282.76 1687.56 283.32 1687.24 283.76C1686.72 284.56 1684.28 284.96 1680.16 284.96L1677.4 285C1680.72 280.32 1685.56 274.4 1689.72 269.4C1689.96 269.08 1690.12 268.72 1690.12 268.4C1690.12 267.88 1689.76 267.32 1688.72 267.32C1687.88 267.32 1686.76 267.36 1685.72 267.36H1676.76C1676.72 266.84 1676.44 266.44 1675.96 266.44C1674.68 266.44 1673.24 271.16 1673.24 273.52C1673.24 274.56 1673.52 275.08 1674.08 275.08C1674.68 275.08 1675.08 274.28 1675.6 272.4C1675.88 271.44 1676.08 270.84 1676.44 270.32C1676.8 269.72 1678.36 269.4 1682.32 269.4L1685.32 269.36C1681.28 274.16 1676.84 279.8 1673.08 284.96C1672.84 285.28 1672.72 285.6 1672.72 285.96C1672.72 286.48 1673.08 287.04 1674.12 287.04C1674.92 287.04 1675.88 287 1677 287H1686.88C1686.92 287.52 1687.2 287.88 1687.68 287.88C1689 287.88 1690.52 283 1690.52 280.56C1690.52 279.56 1690.12 278.96 1689.56 278.96Z" fill="#E0E5E5"/>
<path d="M443.875 550.96C443.235 550.96 442.835 551.76 442.355 553.72C442.075 554.76 441.875 555.32 441.555 555.76C441.035 556.56 438.595 556.96 434.475 556.96L431.715 557C435.035 552.32 439.875 546.4 444.035 541.4C444.275 541.08 444.435 540.72 444.435 540.4C444.435 539.88 444.075 539.32 443.035 539.32C442.195 539.32 441.075 539.36 440.035 539.36H431.075C431.035 538.84 430.755 538.44 430.275 538.44C428.995 538.44 427.555 543.16 427.555 545.52C427.555 546.56 427.835 547.08 428.395 547.08C428.995 547.08 429.395 546.28 429.915 544.4C430.195 543.44 430.395 542.84 430.755 542.32C431.115 541.72 432.675 541.4 436.635 541.4L439.635 541.36C435.595 546.16 431.155 551.8 427.395 556.96C427.155 557.28 427.035 557.6 427.035 557.96C427.035 558.48 427.395 559.04 428.435 559.04C429.235 559.04 430.195 559 431.315 559H441.195C441.235 559.52 441.515 559.88 441.995 559.88C443.315 559.88 444.835 555 444.835 552.56C444.835 551.56 444.435 550.96 443.875 550.96ZM463.718 550.96C463.078 550.96 462.678 551.76 462.198 553.72C461.918 554.76 461.718 555.32 461.398 555.76C460.878 556.56 458.438 556.96 454.318 556.96L451.558 557C454.878 552.32 459.718 546.4 463.878 541.4C464.118 541.08 464.278 540.72 464.278 540.4C464.278 539.88 463.918 539.32 462.878 539.32C462.038 539.32 460.918 539.36 459.878 539.36H450.918C450.878 538.84 450.598 538.44 450.118 538.44C448.838 538.44 447.398 543.16 447.398 545.52C447.398 546.56 447.678 547.08 448.238 547.08C448.838 547.08 449.238 546.28 449.758 544.4C450.038 543.44 450.238 542.84 450.598 542.32C450.958 541.72 452.518 541.4 456.478 541.4L459.478 541.36C455.438 546.16 450.998 551.8 447.238 556.96C446.998 557.28 446.878 557.6 446.878 557.96C446.878 558.48 447.238 559.04 448.278 559.04C449.078 559.04 450.038 559 451.158 559H461.038C461.078 559.52 461.358 559.88 461.838 559.88C463.158 559.88 464.678 555 464.678 552.56C464.678 551.56 464.278 550.96 463.718 550.96ZM483.562 550.96C482.922 550.96 482.522 551.76 482.042 553.72C481.762 554.76 481.562 555.32 481.242 555.76C480.722 556.56 478.282 556.96 474.162 556.96L471.402 557C474.722 552.32 479.562 546.4 483.722 541.4C483.962 541.08 484.122 540.72 484.122 540.4C484.122 539.88 483.762 539.32 482.722 539.32C481.882 539.32 480.762 539.36 479.722 539.36H470.762C470.722 538.84 470.442 538.44 469.962 538.44C468.682 538.44 467.242 543.16 467.242 545.52C467.242 546.56 467.522 547.08 468.082 547.08C468.682 547.08 469.082 546.28 469.602 544.4C469.882 543.44 470.082 542.84 470.442 542.32C470.802 541.72 472.362 541.4 476.322 541.4L479.322 541.36C475.282 546.16 470.842 551.8 467.082 556.96C466.842 557.28 466.722 557.6 466.722 557.96C466.722 558.48 467.082 559.04 468.122 559.04C468.922 559.04 469.882 559 471.002 559H480.882C480.922 559.52 481.202 559.88 481.682 559.88C483.002 559.88 484.522 555 484.522 552.56C484.522 551.56 484.122 550.96 483.562 550.96Z" fill="#E0E5E5"/>
<path d="M1101.87 650.96C1101.23 650.96 1100.83 651.76 1100.35 653.72C1100.07 654.76 1099.87 655.32 1099.55 655.76C1099.03 656.56 1096.59 656.96 1092.47 656.96L1089.71 657C1093.03 652.32 1097.87 646.4 1102.03 641.4C1102.27 641.08 1102.43 640.72 1102.43 640.4C1102.43 639.88 1102.07 639.32 1101.03 639.32C1100.19 639.32 1099.07 639.36 1098.03 639.36H1089.07C1089.03 638.84 1088.75 638.44 1088.27 638.44C1086.99 638.44 1085.55 643.16 1085.55 645.52C1085.55 646.56 1085.83 647.08 1086.39 647.08C1086.99 647.08 1087.39 646.28 1087.91 644.4C1088.19 643.44 1088.39 642.84 1088.75 642.32C1089.11 641.72 1090.67 641.4 1094.63 641.4L1097.63 641.36C1093.59 646.16 1089.15 651.8 1085.39 656.96C1085.15 657.28 1085.03 657.6 1085.03 657.96C1085.03 658.48 1085.39 659.04 1086.43 659.04C1087.23 659.04 1088.19 659 1089.31 659H1099.19C1099.23 659.52 1099.51 659.88 1099.99 659.88C1101.31 659.88 1102.83 655 1102.83 652.56C1102.83 651.56 1102.43 650.96 1101.87 650.96ZM1121.72 650.96C1121.08 650.96 1120.68 651.76 1120.2 653.72C1119.92 654.76 1119.72 655.32 1119.4 655.76C1118.88 656.56 1116.44 656.96 1112.32 656.96L1109.56 657C1112.88 652.32 1117.72 646.4 1121.88 641.4C1122.12 641.08 1122.28 640.72 1122.28 640.4C1122.28 639.88 1121.92 639.32 1120.88 639.32C1120.04 639.32 1118.92 639.36 1117.88 639.36H1108.92C1108.88 638.84 1108.6 638.44 1108.12 638.44C1106.84 638.44 1105.4 643.16 1105.4 645.52C1105.4 646.56 1105.68 647.08 1106.24 647.08C1106.84 647.08 1107.24 646.28 1107.76 644.4C1108.04 643.44 1108.24 642.84 1108.6 642.32C1108.96 641.72 1110.52 641.4 1114.48 641.4L1117.48 641.36C1113.44 646.16 1109 651.8 1105.24 656.96C1105 657.28 1104.88 657.6 1104.88 657.96C1104.88 658.48 1105.24 659.04 1106.28 659.04C1107.08 659.04 1108.04 659 1109.16 659H1119.04C1119.08 659.52 1119.36 659.88 1119.84 659.88C1121.16 659.88 1122.68 655 1122.68 652.56C1122.68 651.56 1122.28 650.96 1121.72 650.96ZM1141.56 650.96C1140.92 650.96 1140.52 651.76 1140.04 653.72C1139.76 654.76 1139.56 655.32 1139.24 655.76C1138.72 656.56 1136.28 656.96 1132.16 656.96L1129.4 657C1132.72 652.32 1137.56 646.4 1141.72 641.4C1141.96 641.08 1142.12 640.72 1142.12 640.4C1142.12 639.88 1141.76 639.32 1140.72 639.32C1139.88 639.32 1138.76 639.36 1137.72 639.36H1128.76C1128.72 638.84 1128.44 638.44 1127.96 638.44C1126.68 638.44 1125.24 643.16 1125.24 645.52C1125.24 646.56 1125.52 647.08 1126.08 647.08C1126.68 647.08 1127.08 646.28 1127.6 644.4C1127.88 643.44 1128.08 642.84 1128.44 642.32C1128.8 641.72 1130.36 641.4 1134.32 641.4L1137.32 641.36C1133.28 646.16 1128.84 651.8 1125.08 656.96C1124.84 657.28 1124.72 657.6 1124.72 657.96C1124.72 658.48 1125.08 659.04 1126.12 659.04C1126.92 659.04 1127.88 659 1129 659H1138.88C1138.92 659.52 1139.2 659.88 1139.68 659.88C1141 659.88 1142.52 655 1142.52 652.56C1142.52 651.56 1142.12 650.96 1141.56 650.96Z" fill="#E0E5E5"/>
<path d="M1558.94 109.491C1557.88 91.0889 1550.42 73.6336 1537.83 60.1475C1525.25 46.6613 1508.33 37.9934 1490.02 35.6443C1471.71 33.2952 1453.15 37.4129 1437.55 47.2845C1421.96 57.156 1410.32 72.16 1404.64 89.6986C1397.27 86.0763 1389.18 84.1624 1380.96 84.0995C1372.75 84.0366 1364.63 85.8265 1357.2 89.3355C1349.78 92.8445 1343.25 97.9821 1338.09 104.365C1332.93 110.747 1329.29 118.21 1327.42 126.196C1325.56 134.182 1325.53 142.486 1327.33 150.486C1329.13 158.486 1332.71 165.977 1337.82 172.4C1342.93 178.823 1349.42 184.011 1356.82 187.578C1364.21 191.145 1372.32 192.999 1380.54 193H1554.09C1564.78 192.984 1575.07 188.893 1582.85 181.56C1590.62 174.228 1595.3 164.209 1595.93 153.549C1596.55 142.889 1593.08 132.393 1586.21 124.205C1579.35 116.016 1569.61 110.753 1558.99 109.491H1558.94Z" stroke="#E0E5E5" stroke-width="2" stroke-miterlimit="10"/>
<path d="M682.937 654.491C681.884 636.089 674.418 618.634 661.832 605.147C649.246 591.661 632.332 582.993 614.019 580.644C595.706 578.295 577.146 582.413 561.554 592.284C545.961 602.156 534.317 617.16 528.638 634.699C521.269 631.076 513.176 629.162 504.962 629.099C496.749 629.037 488.627 630.827 481.203 634.336C473.779 637.845 467.245 642.982 462.088 649.365C456.932 655.747 453.286 663.21 451.422 671.196C449.559 679.182 449.526 687.486 451.327 695.486C453.127 703.486 456.715 710.977 461.821 717.4C466.928 723.823 473.421 729.011 480.818 732.578C488.214 736.145 496.321 737.999 504.535 738H678.089C688.785 737.984 699.072 733.893 706.848 726.56C714.624 719.228 719.303 709.209 719.928 698.549C720.554 687.889 717.079 677.393 710.213 669.205C703.348 661.016 693.61 655.753 682.989 654.491H682.937Z" stroke="#E0E5E5" stroke-width="2" stroke-miterlimit="10"/>
<path d="M233.937 400.491C232.884 382.089 225.418 364.634 212.832 351.147C200.246 337.661 183.332 328.993 165.019 326.644C146.706 324.295 128.146 328.413 112.554 338.284C96.9613 348.156 85.3174 363.16 79.6382 380.699C72.2691 377.076 64.1759 375.162 55.9623 375.099C47.7486 375.037 39.6267 376.827 32.2029 380.336C24.779 383.845 18.245 388.982 13.0883 395.365C7.93166 401.747 4.28551 409.21 2.42211 417.196C0.55872 425.182 0.526096 433.486 2.32679 441.486C4.12748 449.486 7.71492 456.977 12.8214 463.4C17.9278 469.823 24.4215 475.011 31.8175 478.578C39.2136 482.145 47.3212 483.999 55.5351 484H229.089C239.785 483.984 250.072 479.893 257.848 472.56C265.624 465.228 270.303 455.209 270.928 444.549C271.554 433.889 268.079 423.393 261.213 415.205C254.348 407.016 244.61 401.753 233.989 400.491H233.937Z" stroke="#E0E5E5" stroke-width="2" stroke-miterlimit="10"/>
<circle cx="267" cy="38" r="16" fill="#EDF2F2"/>
<circle cx="1439" cy="439" r="16" fill="#EDF2F2"/>
<circle cx="387" cy="615" r="16" fill="#EDF2F2"/>
<circle cx="408" cy="157" r="10" fill="#EDF2F2"/>
<circle cx="1314" cy="228" r="10" fill="#EDF2F2"/>
<circle cx="176" cy="528" r="10" fill="#EDF2F2"/>
<circle cx="225" cy="162" r="4" fill="#EDF2F2"/>
<circle cx="1267" cy="545" r="4" fill="#EDF2F2"/>
<circle cx="1276" cy="121" r="4" fill="#EDF2F2"/>
<path d="M1191.25 665.25V596.5H1272.5C1279.13 596.5 1285.49 599.134 1290.18 603.822C1294.87 608.511 1297.5 614.87 1297.5 621.5V665.25" stroke="#E2E6E6" stroke-width="2" stroke-linecap="round" stroke-linejoin="round"/>
<path d="M1122.5 696.5V571.5" stroke="#E2E6E6" stroke-width="2" stroke-linecap="round" stroke-linejoin="round"/>
<path d="M1122.5 665.25H1297.5V696.5" stroke="#E2E6E6" stroke-width="2" stroke-linecap="round" stroke-linejoin="round"/>
<path d="M1191.25 596.5H1122.5" stroke="#E2E6E6" stroke-width="2" stroke-linecap="round" stroke-linejoin="round"/>
<path d="M1248.38 63.375V42.75H1272.75C1274.74 42.75 1276.65 43.5402 1278.05 44.9467C1279.46 46.3532 1280.25 48.2609 1280.25 50.25V63.375" stroke="#E2E6E6" stroke-width="2" stroke-linecap="round" stroke-linejoin="round"/>
<path d="M1227.75 72.75V35.25" stroke="#E2E6E6" stroke-width="2" stroke-linecap="round" stroke-linejoin="round"/>
<path d="M1227.75 63.375H1280.25V72.75" stroke="#E2E6E6" stroke-width="2" stroke-linecap="round" stroke-linejoin="round"/>
<path d="M1248.38 42.75H1227.75" stroke="#E2E6E6" stroke-width="2" stroke-linecap="round" stroke-linejoin="round"/>
<path d="M138.75 222.75V181.5H187.5C191.478 181.5 195.294 183.08 198.107 185.893C200.92 188.706 202.5 192.522 202.5 196.5V222.75" stroke="#E2E6E6" stroke-width="2" stroke-linecap="round" stroke-linejoin="round"/>
<path d="M97.5 241.5V166.5" stroke="#E2E6E6" stroke-width="2" stroke-linecap="round" stroke-linejoin="round"/>
<path d="M97.5 222.75H202.5V241.5" stroke="#E2E6E6" stroke-width="2" stroke-linecap="round" stroke-linejoin="round"/>
<path d="M138.75 181.5H97.5" stroke="#E2E6E6" stroke-width="2" stroke-linecap="round" stroke-linejoin="round"/>
</svg>
